<svg width="184" height="29" viewBox="0 0 184 29" fill="none" xmlns="http://www.w3.org/2000/svg">
<path d="M14.0479 0.356586C14.0319 0.356532 14.016 0.356506 14 0.356506C6.26801 0.356506 0 6.62452 0 14.3565C0 22.0885 6.26801 28.3565 14 28.3565C21.3391 28.3565 27.3593 22.7093 27.9521 15.5231C20.2421 15.4973 14 9.23919 14 1.52318C14 1.13033 14.0162 0.74125 14.0479 0.356586Z" fill="#800ACF"/>
<path d="M45.5427 22.3565L40.7565 5.62923H44.6198L47.3886 17.2517H47.5274L50.5821 5.62923H53.89L56.9365 17.2763H57.0836L59.8524 5.62923H63.7157L58.9294 22.3565H55.4827L52.2973 11.4201H52.1666L48.9894 22.3565H45.5427ZM69.9128 22.6015C68.6223 22.6015 67.5116 22.3402 66.5804 21.8174C65.6548 21.2893 64.9415 20.5433 64.4405 19.5795C63.9396 18.6103 63.6891 17.4641 63.6891 16.141C63.6891 14.8505 63.9396 13.7179 64.4405 12.7432C64.9415 11.7686 65.6466 11.009 66.5559 10.4645C67.4707 9.91995 68.5434 9.6477 69.774 9.6477C70.6016 9.6477 71.3721 9.7811 72.0854 10.0479C72.8042 10.3093 73.4303 10.704 73.964 11.2322C74.503 11.7604 74.9223 12.4247 75.2218 13.2251C75.5213 14.0201 75.671 14.9512 75.671 16.0184V16.974H65.0776V14.8178H72.3958C72.3958 14.3169 72.2869 13.8731 72.0691 13.4865C71.8513 13.0999 71.5491 12.7977 71.1625 12.5799C70.7813 12.3566 70.3375 12.245 69.8312 12.245C69.303 12.245 68.8347 12.3675 68.4263 12.6125C68.0234 12.8521 67.7076 13.1761 67.4789 13.5845C67.2502 13.9874 67.1331 14.4366 67.1277 14.9321V16.9822C67.1277 17.603 67.242 18.1393 67.4707 18.5912C67.7049 19.0432 68.0343 19.3917 68.459 19.6367C68.8837 19.8817 69.3874 20.0042 69.97 20.0042C70.3566 20.0042 70.7105 19.9498 71.0318 19.8409C71.3531 19.732 71.628 19.5686 71.8567 19.3508C72.0854 19.133 72.2597 18.8662 72.3795 18.5504L75.5975 18.7628C75.4341 19.536 75.0993 20.2111 74.5929 20.7883C74.0919 21.3601 73.444 21.8066 72.649 22.1278C71.8594 22.4436 70.9474 22.6015 69.9128 22.6015ZM78.0069 22.3565V5.62923H81.4863V11.9183H81.5925C81.745 11.5807 81.9655 11.2377 82.2541 10.8892C82.5481 10.5352 82.9293 10.2412 83.3976 10.0071C83.8713 9.76749 84.4594 9.6477 85.1618 9.6477C86.0765 9.6477 86.9205 9.88728 87.6937 10.3664C88.4669 10.8402 89.0849 11.5562 89.5478 12.5145C90.0106 13.4674 90.242 14.6626 90.242 16.1001C90.242 17.4995 90.0161 18.6811 89.5641 19.6449C89.1176 20.6032 88.5078 21.3301 87.7346 21.8256C86.9668 22.3157 86.1065 22.5607 85.1536 22.5607C84.4784 22.5607 83.904 22.4491 83.4302 22.2258C82.962 22.0026 82.5781 21.7222 82.2786 21.3846C81.9791 21.0415 81.7504 20.6958 81.5925 20.3473H81.4373V22.3565H78.0069ZM81.4128 16.0838C81.4128 16.8298 81.5163 17.4804 81.7232 18.0358C81.9301 18.5912 82.2296 19.0241 82.6216 19.3345C83.0137 19.6394 83.4901 19.7919 84.051 19.7919C84.6173 19.7919 85.0964 19.6367 85.4885 19.3263C85.8805 19.0105 86.1773 18.5749 86.3787 18.0195C86.5857 17.4587 86.6891 16.8134 86.6891 16.0838C86.6891 15.3596 86.5884 14.7225 86.3869 14.1726C86.1854 13.6226 85.8887 13.1924 85.4966 12.8821C85.1046 12.5717 84.6227 12.4165 84.051 12.4165C83.4847 12.4165 83.0055 12.5663 82.6135 12.8657C82.2269 13.1652 81.9301 13.5899 81.7232 14.1399C81.5163 14.6898 81.4128 15.3378 81.4128 16.0838ZM98.7139 22.5852C97.4942 22.5852 96.4079 22.3756 95.455 21.9563C94.5076 21.5316 93.7589 20.949 93.2089 20.2084C92.6644 19.4624 92.384 18.6021 92.3676 17.6275H95.9287C95.9505 18.0358 96.0839 18.3952 96.3289 18.7056C96.5794 19.0105 96.9116 19.2474 97.3254 19.4162C97.7392 19.585 98.2048 19.6694 98.722 19.6694C99.2611 19.6694 99.7376 19.5741 100.151 19.3835C100.565 19.1929 100.889 18.9288 101.123 18.5912C101.357 18.2536 101.475 17.8643 101.475 17.4233C101.475 16.9768 101.349 16.582 101.099 16.239C100.854 15.8905 100.5 15.6182 100.037 15.4222C99.5796 15.2262 99.0351 15.1282 98.4035 15.1282H96.8435V12.5309H98.4035C98.9371 12.5309 99.4081 12.4383 99.8165 12.2532C100.23 12.068 100.552 11.8121 100.78 11.4854C101.009 11.1533 101.123 10.7667 101.123 10.3256C101.123 9.90634 101.023 9.5388 100.821 9.22298C100.625 8.90172 100.347 8.65125 99.988 8.47156C99.6341 8.29188 99.2203 8.20203 98.7465 8.20203C98.2674 8.20203 97.8291 8.28915 97.4316 8.4634C97.0341 8.63219 96.7155 8.8745 96.476 9.19031C96.2364 9.50613 96.1084 9.87639 96.0921 10.3011H92.7025C92.7188 9.33733 92.9938 8.4879 93.5274 7.75281C94.0611 7.01773 94.7798 6.44327 95.6837 6.02945C96.593 5.61018 97.6194 5.40054 98.7629 5.40054C99.9172 5.40054 100.927 5.61018 101.793 6.02945C102.659 6.44872 103.331 7.015 103.81 7.72831C104.295 8.43617 104.535 9.23115 104.529 10.1133C104.535 11.0498 104.243 11.8312 103.655 12.4574C103.073 13.0835 102.313 13.481 101.377 13.6498V13.7805C102.607 13.9384 103.544 14.3659 104.186 15.0628C104.834 15.7544 105.155 16.6201 105.15 17.6601C105.155 18.613 104.88 19.4597 104.325 20.2003C103.775 20.9408 103.015 21.5234 102.046 21.9481C101.077 22.3728 99.9662 22.5852 98.7139 22.5852ZM113.113 22.3565V5.62923H119.713C120.982 5.62923 122.062 5.87154 122.955 6.35615C123.848 6.83532 124.529 7.50234 124.997 8.35722C125.471 9.20665 125.708 10.1868 125.708 11.2976C125.708 12.4084 125.468 13.3885 124.989 14.2379C124.51 15.0873 123.816 15.7489 122.906 16.2226C122.002 16.6963 120.908 16.9332 119.623 16.9332H115.417V14.099H119.051C119.732 14.099 120.293 13.982 120.734 13.7478C121.18 13.5083 121.512 13.1788 121.73 12.7596C121.953 12.3348 122.065 11.8475 122.065 11.2976C122.065 10.7422 121.953 10.2575 121.73 9.84372C121.512 9.42445 121.18 9.10047 120.734 8.87178C120.287 8.63764 119.721 8.52057 119.035 8.52057H116.65V22.3565H113.113ZM131.419 5.62923V22.3565H127.94V5.62923H131.419ZM137.784 22.5934C136.983 22.5934 136.27 22.4545 135.644 22.1768C135.018 21.8937 134.522 21.4771 134.157 20.9272C133.798 20.3718 133.618 19.6803 133.618 18.8526C133.618 18.1556 133.746 17.5703 134.002 17.0966C134.258 16.6228 134.606 16.2417 135.048 15.9531C135.489 15.6645 135.99 15.4467 136.55 15.2997C137.117 15.1527 137.71 15.0492 138.331 14.9893C139.061 14.9131 139.649 14.8423 140.095 14.777C140.542 14.7062 140.866 14.6027 141.067 14.4666C141.269 14.3305 141.369 14.129 141.369 13.8622V13.8132C141.369 13.2959 141.206 12.8957 140.879 12.6125C140.558 12.3294 140.101 12.1878 139.507 12.1878C138.881 12.1878 138.383 12.3267 138.012 12.6044C137.642 12.8766 137.397 13.2197 137.277 13.6335L134.059 13.3721C134.223 12.6098 134.544 11.951 135.023 11.3956C135.502 10.8347 136.12 10.4046 136.877 10.1051C137.639 9.80016 138.521 9.6477 139.523 9.6477C140.22 9.6477 140.887 9.72938 141.524 9.89273C142.167 10.0561 142.736 10.3093 143.231 10.6523C143.732 10.9954 144.127 11.4364 144.416 11.9755C144.704 12.5091 144.849 13.1489 144.849 13.8949V22.3565H141.549V20.6168H141.451C141.249 21.0089 140.98 21.3546 140.642 21.6541C140.305 21.9481 139.899 22.1795 139.425 22.3483C138.952 22.5117 138.404 22.5934 137.784 22.5934ZM138.78 20.1921C139.292 20.1921 139.744 20.0914 140.136 19.8899C140.528 19.683 140.836 19.4053 141.059 19.0568C141.282 18.7083 141.394 18.3135 141.394 17.8725V16.5412C141.285 16.612 141.135 16.6773 140.945 16.7372C140.759 16.7916 140.55 16.8434 140.316 16.8924C140.081 16.9359 139.847 16.9768 139.613 17.0149C139.379 17.0476 139.167 17.0775 138.976 17.1047C138.568 17.1646 138.211 17.2599 137.906 17.3906C137.601 17.5213 137.364 17.6982 137.196 17.9215C137.027 18.1393 136.942 18.4115 136.942 18.7383C136.942 19.212 137.114 19.5741 137.457 19.8245C137.805 20.0696 138.246 20.1921 138.78 20.1921ZM151.027 15.1037V22.3565H147.548V9.81105H150.864V12.0245H151.011C151.289 11.2948 151.754 10.7177 152.408 10.2929C153.061 9.86278 153.853 9.6477 154.785 9.6477C155.656 9.6477 156.415 9.83828 157.063 10.2194C157.711 10.6006 158.215 11.1451 158.574 11.853C158.934 12.5554 159.113 13.3939 159.113 14.3686V22.3565H155.634V14.9893C155.639 14.2216 155.443 13.6226 155.046 13.1924C154.648 12.7568 154.101 12.539 153.404 12.539C152.936 12.539 152.522 12.6398 152.163 12.8412C151.809 13.0427 151.531 13.3367 151.33 13.7233C151.134 14.1045 151.033 14.5646 151.027 15.1037ZM167.573 22.6015C166.283 22.6015 165.172 22.3402 164.241 21.8174C163.315 21.2893 162.602 20.5433 162.101 19.5795C161.6 18.6103 161.349 17.4641 161.349 16.141C161.349 14.8505 161.6 13.7179 162.101 12.7432C162.602 11.7686 163.307 11.009 164.216 10.4645C165.131 9.91995 166.204 9.6477 167.434 9.6477C168.262 9.6477 169.032 9.7811 169.746 10.0479C170.464 10.3093 171.091 10.704 171.624 11.2322C172.163 11.7604 172.582 12.4247 172.882 13.2251C173.181 14.0201 173.331 14.9512 173.331 16.0184V16.974H162.738V14.8178H170.056C170.056 14.3169 169.947 13.8731 169.729 13.4865C169.511 13.0999 169.209 12.7977 168.823 12.5799C168.441 12.3566 167.998 12.245 167.491 12.245C166.963 12.245 166.495 12.3675 166.086 12.6125C165.684 12.8521 165.368 13.1761 165.139 13.5845C164.91 13.9874 164.793 14.4366 164.788 14.9321V16.9822C164.788 17.603 164.902 18.1393 165.131 18.5912C165.365 19.0432 165.694 19.3917 166.119 19.6367C166.544 19.8817 167.048 20.0042 167.63 20.0042C168.017 20.0042 168.371 19.9498 168.692 19.8409C169.013 19.732 169.288 19.5686 169.517 19.3508C169.746 19.133 169.92 18.8662 170.04 18.5504L173.258 18.7628C173.094 19.536 172.759 20.2111 172.253 20.7883C171.752 21.3601 171.104 21.8066 170.309 22.1278C169.52 22.4436 168.608 22.6015 167.573 22.6015ZM182.275 9.81105V12.4247H174.72V9.81105H182.275ZM176.435 6.80537H179.914V18.5014C179.914 18.8227 179.963 19.0731 180.061 19.2528C180.159 19.4271 180.295 19.5496 180.47 19.6204C180.649 19.6911 180.856 19.7265 181.09 19.7265C181.254 19.7265 181.417 19.7129 181.58 19.6857C181.744 19.653 181.869 19.6285 181.956 19.6122L182.503 22.2013C182.329 22.2558 182.084 22.3184 181.768 22.3892C181.452 22.4654 181.069 22.5117 180.617 22.528C179.778 22.5607 179.043 22.4491 178.411 22.1932C177.785 21.9372 177.298 21.5397 176.949 21.0007C176.601 20.4616 176.429 19.781 176.435 18.9588V6.80537Z" fill="white"/>
</svg>
