<svg width="184" height="29" viewBox="0 0 184 29" fill="none" xmlns="http://www.w3.org/2000/svg">
<path d="M14.0479 0.238392C14.0319 0.238337 14.016 0.238312 14 0.238312C6.26801 0.238312 0 6.50633 0 14.2383C0 21.9703 6.26801 28.2383 14 28.2383C21.3391 28.2383 27.3593 22.5911 27.9521 15.4049C20.2421 15.3791 14 9.121 14 1.40498C14 1.01213 14.0162 0.623055 14.0479 0.238392Z" fill="#694CEA"/>
<path d="M45.5427 22.2383L40.7565 5.51104H44.6198L47.3886 17.1336H47.5274L50.5821 5.51104H53.89L56.9365 17.1581H57.0836L59.8524 5.51104H63.7157L58.9294 22.2383H55.4827L52.2973 11.3019H52.1666L48.9894 22.2383H45.5427ZM69.9128 22.4833C68.6223 22.4833 67.5116 22.222 66.5804 21.6992C65.6548 21.1711 64.9415 20.4251 64.4405 19.4613C63.9396 18.4921 63.6891 17.3459 63.6891 16.0228C63.6891 14.7323 63.9396 13.5997 64.4405 12.625C64.9415 11.6504 65.6466 10.8908 66.5559 10.3463C67.4707 9.80176 68.5434 9.52951 69.774 9.52951C70.6016 9.52951 71.3721 9.66291 72.0854 9.92972C72.8042 10.1911 73.4303 10.5858 73.964 11.114C74.503 11.6422 74.9223 12.3065 75.2218 13.1069C75.5213 13.9019 75.671 14.833 75.671 15.9002V16.8559H65.0776V14.6996H72.3958C72.3958 14.1987 72.2869 13.7549 72.0691 13.3683C71.8513 12.9817 71.5491 12.6795 71.1625 12.4617C70.7813 12.2384 70.3375 12.1268 69.8312 12.1268C69.303 12.1268 68.8347 12.2493 68.4263 12.4943C68.0234 12.7339 67.7076 13.0579 67.4789 13.4663C67.2502 13.8692 67.1331 14.3184 67.1277 14.814V16.864C67.1277 17.4848 67.242 18.0211 67.4707 18.473C67.7049 18.925 68.0343 19.2735 68.459 19.5185C68.8837 19.7635 69.3874 19.886 69.97 19.886C70.3566 19.886 70.7105 19.8316 71.0318 19.7227C71.3531 19.6138 71.628 19.4504 71.8567 19.2326C72.0854 19.0148 72.2597 18.748 72.3795 18.4322L75.5975 18.6446C75.4341 19.4178 75.0993 20.093 74.5929 20.6701C74.0919 21.2419 73.444 21.6884 72.649 22.0096C71.8594 22.3254 70.9474 22.4833 69.9128 22.4833ZM78.0069 22.2383V5.51104H81.4863V11.8001H81.5925C81.745 11.4625 81.9655 11.1195 82.2541 10.771C82.5481 10.4171 82.9293 10.123 83.3976 9.88888C83.8713 9.6493 84.4594 9.52951 85.1618 9.52951C86.0765 9.52951 86.9205 9.76909 87.6937 10.2483C88.4669 10.722 89.0849 11.438 89.5478 12.3963C90.0106 13.3492 90.242 14.5444 90.242 15.9819C90.242 17.3813 90.0161 18.5629 89.5641 19.5267C89.1176 20.485 88.5078 21.2119 87.7346 21.7074C86.9668 22.1975 86.1065 22.4425 85.1536 22.4425C84.4784 22.4425 83.904 22.3309 83.4302 22.1076C82.962 21.8844 82.5781 21.604 82.2786 21.2664C81.9791 20.9233 81.7504 20.5776 81.5925 20.2291H81.4373V22.2383H78.0069ZM81.4128 15.9656C81.4128 16.7116 81.5163 17.3622 81.7232 17.9176C81.9301 18.473 82.2296 18.9059 82.6216 19.2163C83.0137 19.5212 83.4901 19.6737 84.051 19.6737C84.6173 19.6737 85.0964 19.5185 85.4885 19.2081C85.8805 18.8923 86.1773 18.4567 86.3787 17.9013C86.5857 17.3405 86.6891 16.6952 86.6891 15.9656C86.6891 15.2414 86.5884 14.6043 86.3869 14.0544C86.1854 13.5044 85.8887 13.0742 85.4966 12.7639C85.1046 12.4535 84.6227 12.2983 84.051 12.2983C83.4847 12.2983 83.0055 12.4481 82.6135 12.7475C82.2269 13.047 81.9301 13.4717 81.7232 14.0217C81.5163 14.5716 81.4128 15.2196 81.4128 15.9656ZM98.7139 22.467C97.4942 22.467 96.4079 22.2574 95.455 21.8381C94.5076 21.4134 93.7589 20.8308 93.2089 20.0902C92.6644 19.3443 92.384 18.4839 92.3676 17.5093H95.9287C95.9505 17.9176 96.0839 18.277 96.3289 18.5874C96.5794 18.8923 96.9116 19.1292 97.3254 19.298C97.7392 19.4668 98.2048 19.5512 98.722 19.5512C99.2611 19.5512 99.7376 19.4559 100.151 19.2653C100.565 19.0747 100.889 18.8106 101.123 18.473C101.357 18.1354 101.475 17.7461 101.475 17.3051C101.475 16.8586 101.349 16.4638 101.099 16.1208C100.854 15.7723 100.5 15.5 100.037 15.304C99.5796 15.108 99.0351 15.01 98.4035 15.01H96.8435V12.4127H98.4035C98.9371 12.4127 99.4081 12.3201 99.8165 12.135C100.23 11.9498 100.552 11.6939 100.78 11.3672C101.009 11.0351 101.123 10.6485 101.123 10.2074C101.123 9.78815 101.023 9.4206 100.821 9.10479C100.625 8.78353 100.347 8.53306 99.988 8.35337C99.6341 8.17368 99.2203 8.08384 98.7465 8.08384C98.2674 8.08384 97.8291 8.17096 97.4316 8.3452C97.0341 8.514 96.7155 8.7563 96.476 9.07212C96.2364 9.38793 96.1084 9.7582 96.0921 10.1829H92.7025C92.7188 9.21913 92.9938 8.3697 93.5274 7.63462C94.0611 6.89953 94.7798 6.32508 95.6837 5.91125C96.593 5.49198 97.6194 5.28235 98.7629 5.28235C99.9172 5.28235 100.927 5.49198 101.793 5.91125C102.659 6.33052 103.331 6.89681 103.81 7.61011C104.295 8.31798 104.535 9.11296 104.529 9.99506C104.535 10.9316 104.243 11.713 103.655 12.3392C103.073 12.9653 102.313 13.3628 101.377 13.5316V13.6623C102.607 13.8202 103.544 14.2477 104.186 14.9446C104.834 15.6362 105.155 16.5019 105.15 17.5419C105.155 18.4948 104.88 19.3415 104.325 20.0821C103.775 20.8226 103.015 21.4052 102.046 21.8299C101.077 22.2546 99.9662 22.467 98.7139 22.467ZM113.113 22.2383V5.51104H119.713C120.982 5.51104 122.062 5.75334 122.955 6.23796C123.848 6.71712 124.529 7.38414 124.997 8.23902C125.471 9.08845 125.708 10.0686 125.708 11.1794C125.708 12.2902 125.468 13.2703 124.989 14.1197C124.51 14.9691 123.816 15.6307 122.906 16.1044C122.002 16.5782 120.908 16.815 119.623 16.815H115.417V13.9809H119.051C119.732 13.9809 120.293 13.8638 120.734 13.6296C121.18 13.3901 121.512 13.0606 121.73 12.6414C121.953 12.2166 122.065 11.7293 122.065 11.1794C122.065 10.624 121.953 10.1394 121.73 9.72553C121.512 9.30626 121.18 8.98227 120.734 8.75358C120.287 8.51944 119.721 8.40237 119.035 8.40237H116.65V22.2383H113.113ZM131.419 5.51104V22.2383H127.94V5.51104H131.419ZM137.784 22.4752C136.983 22.4752 136.27 22.3363 135.644 22.0586C135.018 21.7755 134.522 21.3589 134.157 20.809C133.798 20.2536 133.618 19.5621 133.618 18.7344C133.618 18.0374 133.746 17.4521 134.002 16.9784C134.258 16.5046 134.606 16.1235 135.048 15.8349C135.489 15.5463 135.99 15.3285 136.55 15.1815C137.117 15.0345 137.71 14.931 138.331 14.8711C139.061 14.7949 139.649 14.7241 140.095 14.6588C140.542 14.588 140.866 14.4845 141.067 14.3484C141.269 14.2123 141.369 14.0108 141.369 13.744V13.695C141.369 13.1777 141.206 12.7775 140.879 12.4943C140.558 12.2112 140.101 12.0696 139.507 12.0696C138.881 12.0696 138.383 12.2085 138.012 12.4862C137.642 12.7584 137.397 13.1015 137.277 13.5153L134.059 13.2539C134.223 12.4916 134.544 11.8328 135.023 11.2774C135.502 10.7165 136.12 10.2864 136.877 9.98689C137.639 9.68197 138.521 9.52951 139.523 9.52951C140.22 9.52951 140.887 9.61118 141.524 9.77453C142.167 9.93789 142.736 10.1911 143.231 10.5341C143.732 10.8772 144.127 11.3182 144.416 11.8573C144.704 12.3909 144.849 13.0307 144.849 13.7767V22.2383H141.549V20.4986H141.451C141.249 20.8907 140.98 21.2364 140.642 21.5359C140.305 21.8299 139.899 22.0613 139.425 22.2301C138.952 22.3935 138.404 22.4752 137.784 22.4752ZM138.78 20.0739C139.292 20.0739 139.744 19.9732 140.136 19.7717C140.528 19.5648 140.836 19.2871 141.059 18.9386C141.282 18.5901 141.394 18.1953 141.394 17.7543V16.423C141.285 16.4938 141.135 16.5591 140.945 16.619C140.759 16.6734 140.55 16.7252 140.316 16.7742C140.081 16.8177 139.847 16.8586 139.613 16.8967C139.379 16.9294 139.167 16.9593 138.976 16.9865C138.568 17.0464 138.211 17.1417 137.906 17.2724C137.601 17.4031 137.364 17.58 137.196 17.8033C137.027 18.0211 136.942 18.2934 136.942 18.6201C136.942 19.0938 137.114 19.4559 137.457 19.7064C137.805 19.9514 138.246 20.0739 138.78 20.0739ZM151.027 14.9855V22.2383H147.548V9.69286H150.864V11.9063H151.011C151.289 11.1766 151.754 10.5995 152.408 10.1747C153.061 9.74459 153.853 9.52951 154.785 9.52951C155.656 9.52951 156.415 9.72008 157.063 10.1012C157.711 10.4824 158.215 11.0269 158.574 11.7348C158.934 12.4372 159.113 13.2757 159.113 14.2504V22.2383H155.634V14.8711C155.639 14.1034 155.443 13.5044 155.046 13.0742C154.648 12.6386 154.101 12.4208 153.404 12.4208C152.936 12.4208 152.522 12.5216 152.163 12.723C151.809 12.9245 151.531 13.2185 151.33 13.6051C151.134 13.9863 151.033 14.4464 151.027 14.9855ZM167.573 22.4833C166.283 22.4833 165.172 22.222 164.241 21.6992C163.315 21.1711 162.602 20.4251 162.101 19.4613C161.6 18.4921 161.349 17.3459 161.349 16.0228C161.349 14.7323 161.6 13.5997 162.101 12.625C162.602 11.6504 163.307 10.8908 164.216 10.3463C165.131 9.80176 166.204 9.52951 167.434 9.52951C168.262 9.52951 169.032 9.66291 169.746 9.92972C170.464 10.1911 171.091 10.5858 171.624 11.114C172.163 11.6422 172.582 12.3065 172.882 13.1069C173.181 13.9019 173.331 14.833 173.331 15.9002V16.8559H162.738V14.6996H170.056C170.056 14.1987 169.947 13.7549 169.729 13.3683C169.511 12.9817 169.209 12.6795 168.823 12.4617C168.441 12.2384 167.998 12.1268 167.491 12.1268C166.963 12.1268 166.495 12.2493 166.086 12.4943C165.684 12.7339 165.368 13.0579 165.139 13.4663C164.91 13.8692 164.793 14.3184 164.788 14.814V16.864C164.788 17.4848 164.902 18.0211 165.131 18.473C165.365 18.925 165.694 19.2735 166.119 19.5185C166.544 19.7635 167.048 19.886 167.63 19.886C168.017 19.886 168.371 19.8316 168.692 19.7227C169.013 19.6138 169.288 19.4504 169.517 19.2326C169.746 19.0148 169.92 18.748 170.04 18.4322L173.258 18.6446C173.094 19.4178 172.759 20.093 172.253 20.6701C171.752 21.2419 171.104 21.6884 170.309 22.0096C169.52 22.3254 168.608 22.4833 167.573 22.4833ZM182.275 9.69286V12.3065H174.72V9.69286H182.275ZM176.435 6.68718H179.914V18.3832C179.914 18.7045 179.963 18.9549 180.061 19.1346C180.159 19.3089 180.295 19.4314 180.47 19.5022C180.649 19.5729 180.856 19.6083 181.09 19.6083C181.254 19.6083 181.417 19.5947 181.58 19.5675C181.744 19.5348 181.869 19.5103 181.956 19.494L182.503 22.0831C182.329 22.1376 182.084 22.2002 181.768 22.271C181.452 22.3472 181.069 22.3935 180.617 22.4098C179.778 22.4425 179.043 22.3309 178.411 22.075C177.785 21.819 177.298 21.4216 176.949 20.8825C176.601 20.3434 176.429 19.6628 176.435 18.8406V6.68718Z" fill="#F4F4F4"/>
</svg>
